<?xml version="1.0" encoding="utf-8"?>
<!-- Generator: Adobe Illustrator 15.0.0, SVG Export Plug-In . SVG Version: 6.00 Build 0)  -->
<!DOCTYPE svg PUBLIC "-//W3C//DTD SVG 1.1//EN" "http://www.w3.org/Graphics/SVG/1.1/DTD/svg11.dtd">
<svg version="1.1" id="Layer_1" xmlns="http://www.w3.org/2000/svg" xmlns:xlink="http://www.w3.org/1999/xlink" x="0px" y="0px"
	 width="252px" height="184px" viewBox="0 0 252 184" enable-background="new 0 0 252 184" xml:space="preserve">
<g id="dark-blue">
	<path fill="#2B388F" stroke="#2B388F" d="M220.21,64.181c-2.089-45.906-25.774-81.063-83.739-54.784
		C77.694,36.045,5.104,52.9,16.762,99.654c11.657,46.754,95.391,78.58,158.757,66.361c9.025-1.736,16.789-3.601,23.477-5.578
		c7.458,8.119,21.676,22.416,29.561,22.682c0.194,0.006,0.366,0.014,0.549,0.02c-0.067-0.104-11.078-17.094-14.295-28.467
		C259.096,134.396,222.021,104.023,220.21,64.181z"/>
</g>
<path id="light-blue" opacity="0.5" fill="#26A9E0" enable-background="new    " d="M244.12,83.851
	c0-52.319-47.226-81.035-118.709-71.28C17.64,27.275,12.091,10.683,28.447,90.951c6.644,32.611,18.788,64.328,43.128,79.797
	c-2.836,4.199-7.719,9.797-13.587,9.797c0,0,17.339,0.029,28.354-2.98c11.129,3.42,24.214,4.06,39.663,1.021
	C190.17,165.947,244.12,136.17,244.12,83.851"/>
<g id="text">
	<path fill="#FFFFFF" d="M77.395,68.708V41.212c0-0.525,0.17-0.958,0.511-1.299c0.34-0.34,0.764-0.511,1.27-0.511h6.538
		c0.525,0,0.953,0.17,1.285,0.51c0.331,0.34,0.496,0.771,0.496,1.295v9.725h8.144c0.526,0,0.954,0.166,1.285,0.498
		s0.496,0.762,0.496,1.29v3.488c0,0.527-0.17,0.958-0.511,1.29c-0.341,0.332-0.764,0.498-1.27,0.498h-8.144v10.842
		c0,2.009,0.467,3.56,1.401,4.653c0.934,1.093,2.179,1.64,3.736,1.64c0.525,0,1.226-0.058,2.102-0.175s1.508-0.175,1.897-0.175h1.08
		c0.525,0,0.958,0.161,1.299,0.482c0.34,0.321,0.51,0.737,0.51,1.247v3.036c0,0.435-0.17,0.813-0.511,1.135
		c-0.341,0.321-0.773,0.52-1.299,0.596c-1.985,0.378-4.573,0.567-7.765,0.567C81.578,81.863,77.395,77.485,77.395,68.708z"/>
	<path fill="#FFFFFF" d="M106.426,77.646c-2.997-2.798-4.495-6.89-4.495-12.274c0-5.385,1.508-9.512,4.524-12.383
		c3.016-2.87,7.19-4.306,12.522-4.306c5.371,0,9.555,1.43,12.552,4.289c2.996,2.858,4.494,6.958,4.494,12.296v1.704
		c0,0.538-0.17,0.981-0.51,1.33c-0.342,0.349-0.775,0.523-1.301,0.523h-21.979c0.194,2.23,0.88,3.854,2.058,4.869
		c1.177,1.016,2.982,1.523,5.415,1.523c2.744,0,4.65-0.652,5.721-1.956c0.836-1.031,1.956-1.557,3.357-1.576h4.349
		c0.526,0,0.959,0.182,1.3,0.544c0.34,0.363,0.512,0.824,0.512,1.383c0,5.506-5.323,8.25-15.967,8.231
		C113.606,81.844,109.422,80.445,106.426,77.646z M112.176,62.199h13.573c-0.195-4.592-2.447-6.889-6.757-6.889
		C114.681,55.311,112.41,57.607,112.176,62.199z"/>
	<path fill="#FFFFFF" d="M137.661,80.355c-0.06-0.175-0.088-0.34-0.088-0.496c0-0.409,0.155-0.798,0.468-1.168l10.157-13.456
		l-9.486-13.398c-0.272-0.389-0.423-0.773-0.452-1.153c-0.029-0.379,0.077-0.71,0.321-0.992c0.242-0.282,0.578-0.423,1.007-0.423
		h6.334c1.868,0,3.387,0.856,4.555,2.569l4.844,7.355l4.847-7.355c1.147-1.712,2.666-2.569,4.554-2.569h6.334
		c0.447,0,0.788,0.142,1.021,0.423c0.232,0.282,0.341,0.613,0.32,0.992c-0.02,0.38-0.174,0.764-0.467,1.153l-9.486,13.398
		l10.158,13.456c0.312,0.37,0.467,0.759,0.467,1.168c0,0.175-0.028,0.34-0.088,0.496c-0.174,0.604-0.604,0.905-1.283,0.905h-6.219
		c-1.789,0-3.309-0.856-4.554-2.569l-5.604-7.589l-5.633,7.589c-1.227,1.713-2.733,2.569-4.523,2.569h-6.219
		C138.264,81.26,137.836,80.958,137.661,80.355z"/>
	<path fill="#FFFFFF" d="M176.996,68.708V41.212c0-0.525,0.17-0.958,0.511-1.299c0.341-0.34,0.765-0.511,1.271-0.511h6.539
		c0.524,0,0.953,0.17,1.283,0.51c0.332,0.34,0.496,0.771,0.496,1.295v9.725h8.145c0.525,0,0.953,0.166,1.285,0.498
		c0.33,0.332,0.496,0.762,0.496,1.29v3.488c0,0.527-0.172,0.958-0.513,1.29c-0.34,0.332-0.764,0.498-1.27,0.498h-8.146v10.842
		c0,2.009,0.469,3.56,1.402,4.653c0.934,1.093,2.18,1.64,3.736,1.64c0.524,0,1.225-0.058,2.102-0.175
		c0.875-0.117,1.508-0.175,1.896-0.175h1.08c0.524,0,0.959,0.161,1.299,0.482c0.34,0.322,0.512,0.737,0.512,1.248v3.036
		c0,0.435-0.172,0.813-0.512,1.135c-0.34,0.321-0.773,0.52-1.299,0.596c-1.984,0.378-4.572,0.567-7.765,0.567
		C181.18,81.863,176.996,77.485,176.996,68.708z"/>
</g>
<g id="local">
	<path fill="#FFFFFF" d="M65.856,133.312V95.046c0-0.524,0.17-0.958,0.511-1.299c0.34-0.341,0.764-0.511,1.27-0.511h6.538
		c0.525,0,0.953,0.17,1.285,0.511c0.331,0.341,0.496,0.772,0.496,1.299v38.269c0,0.524-0.17,0.953-0.511,1.283
		c-0.341,0.332-0.764,0.496-1.27,0.496h-6.538c-0.526,0-0.954-0.164-1.285-0.496C66.021,134.268,65.856,133.839,65.856,133.312z"/>
	<path fill="#FFFFFF" d="M85.838,131.475c-3.027-2.803-4.54-6.933-4.54-12.392c0-5.458,1.513-9.583,4.54-12.376
		c3.027-2.792,7.391-4.188,13.092-4.188c5.7,0,10.069,1.396,13.104,4.188c3.036,2.793,4.554,6.918,4.554,12.376
		c0,5.459-1.518,9.589-4.554,12.392c-3.036,2.803-7.404,4.203-13.104,4.203C93.229,135.678,88.865,134.275,85.838,131.475z
		 M93.21,111.509c-1.208,1.576-1.813,4.097-1.813,7.56c0,3.465,0.604,5.994,1.813,7.591c1.209,1.596,3.115,2.394,5.718,2.394
		s4.514-0.798,5.732-2.394c1.218-1.597,1.828-4.126,1.828-7.591c0-3.463-0.609-5.982-1.828-7.56
		c-1.219-1.577-3.129-2.364-5.732-2.364S94.419,109.934,93.21,111.509z"/>
	<path fill="#FFFFFF" d="M120.149,119.111c0-5.463,1.508-9.594,4.524-12.395c3.017-2.799,7.288-4.199,12.813-4.199
		c5.216,0,9.272,0.855,12.173,2.567c2.899,1.712,4.35,4.24,4.35,7.586c0,0.526-0.173,0.956-0.519,1.287
		c-0.346,0.332-0.783,0.498-1.315,0.498h-4.409c-1.342,0-2.477-0.71-3.402-2.131c-1.164-1.829-3.284-2.744-6.361-2.744
		c-2.82,0-4.818,0.743-5.992,2.229c-1.174,1.485-1.761,3.92-1.761,7.301c0,3.343,0.606,5.762,1.819,7.258
		c1.214,1.495,3.289,2.242,6.229,2.242c3.076,0,5.196-0.907,6.36-2.727c0.927-1.432,2.061-2.146,3.401-2.146h4.407
		c0.533,0,0.972,0.168,1.317,0.504c0.345,0.336,0.518,0.753,0.518,1.252c0,3.355-1.445,5.891-4.335,7.607
		c-2.89,1.715-6.942,2.574-12.157,2.574c-5.701,0-10.07-1.402-13.105-4.207C121.667,128.666,120.149,124.547,120.149,119.111z"/>
	<path fill="#FFFFFF" d="M161.116,132.992c-2.578-1.79-3.867-4.32-3.867-7.59s1.289-5.779,3.867-7.53
		c2.579-1.752,5.901-2.627,9.969-2.627h9.662c0-2.277-0.479-3.863-1.435-4.759s-2.467-1.342-4.535-1.342
		c-2.711,0-4.611,0.66-5.703,1.983c-0.836,1.032-1.952,1.547-3.352,1.547h-4.34c-0.523,0-0.957-0.17-1.297-0.511
		c-0.34-0.34-0.51-0.764-0.51-1.27c0-5.586,5.302-8.377,15.904-8.377c4.635,0,8.354,1.035,11.158,3.107s4.207,5.277,4.207,9.618
		v18.067c0,0.525-0.166,0.953-0.496,1.285c-0.332,0.33-0.761,0.495-1.285,0.495h-5.633c-0.525,0-0.955-0.17-1.285-0.511
		c-0.332-0.34-0.496-0.764-0.496-1.27v-0.906c-3.075,2.199-6.598,3.289-10.566,3.271
		C167.018,135.678,163.695,134.782,161.116,132.992z M167.35,125.402c0,1.07,0.408,1.945,1.229,2.627
		c0.818,0.682,1.979,1.021,3.48,1.021c3.004,0,5.899-0.876,8.688-2.627v-4.554h-8.981c-1.365,0-2.441,0.331-3.231,0.991
		C167.743,123.525,167.35,124.372,167.35,125.402z"/>
	<path fill="#FFFFFF" d="M198.025,133.312V95.046c0-0.524,0.172-0.958,0.513-1.299c0.34-0.341,0.763-0.511,1.271-0.511h6.537
		c0.525,0,0.953,0.17,1.284,0.511s0.496,0.772,0.496,1.299v38.269c0,0.524-0.17,0.953-0.511,1.283
		c-0.342,0.332-0.764,0.496-1.27,0.496h-6.539c-0.524,0-0.953-0.164-1.283-0.496C198.191,134.268,198.025,133.839,198.025,133.312z"
		/>
</g>
</svg>
